<svg version="1.1" id="Layer_1" xmlns="http://www.w3.org/2000/svg" xmlns:xlink="http://www.w3.org/1999/xlink" x="0px" y="0px"
	 width="100%" viewBox="0 0 500 500" enable-background="new 0 0 500 500" xml:space="preserve">

<path fill="#DC2727" opacity="1.000000" stroke="none" 
	d="
M225.834351,259.984283 
	C222.453491,262.690002 219.162415,265.519196 215.663925,268.063110 
	C212.772171,270.165833 210.924622,271.452759 213.796005,275.665131 
	C229.760971,299.085968 245.280518,322.810516 260.937195,346.441223 
	C261.546417,347.360718 261.999969,348.383362 262.872314,349.999329 
	C257.993744,349.999329 253.742615,349.999329 249.491470,349.999298 
	C234.662048,349.999207 219.832291,349.947205 205.003525,350.045624 
	C202.256424,350.063843 200.662109,349.352203 199.123856,346.772827 
	C189.362076,330.403839 179.305969,314.210571 169.372421,297.943756 
	C163.183136,287.808441 157.038635,277.645813 150.641388,266.846466 
	C150.293716,266.076904 150.194778,265.931488 150.058746,265.843292 
	C149.943420,265.768494 149.785217,265.759766 149.645981,265.721832 
	C149.430771,267.259369 149.030151,268.796631 149.027939,270.334473 
	C148.989807,296.834137 149.000778,323.333862 149.000992,349.833588 
	C132.011017,349.877838 115.021034,349.922119 97.573883,349.443481 
	C97.103203,334.046356 97.138931,319.171722 97.012062,304.298462 
	C96.996704,302.498627 96.103577,300.706329 95.617279,298.910522 
	C87.219444,294.537933 78.764725,290.270447 70.438896,285.764801 
	C61.072945,280.696320 51.821098,275.416870 42.523857,270.221588 
	C37.385391,267.350220 32.255592,264.463318 27.323456,261.039307 
	C30.004345,260.328674 32.483593,260.017914 34.962990,260.016724 
	C98.586761,259.986237 162.210556,259.988068 225.834351,259.984283 
z"/>
<path fill="#DC2626" opacity="1.000000" stroke="none" 
	d="
M282.989594,152.165405 
	C304.278168,152.110825 325.568634,151.864059 346.854523,152.076584 
	C358.862549,152.196487 370.801086,154.103714 381.300140,160.159164 
	C397.695129,169.615189 408.444427,183.297760 410.087799,202.946274 
	C410.197296,204.255661 411.228241,206.013977 412.346191,206.634323 
	C429.979706,216.418945 447.701660,226.044098 465.392731,235.725220 
	C468.376801,237.358185 471.311279,239.081848 474.223511,241.178833 
	C472.197632,241.730240 470.217102,241.982880 468.236267,241.985001 
	C443.125671,242.011856 418.015015,242.018936 392.904388,241.998840 
	C356.320496,241.969589 319.736603,241.914154 283.101776,241.412628 
	C283.030426,211.358734 283.010010,181.762070 282.989594,152.165405 
M351.355530,198.978653 
	C345.373993,198.535797 339.392426,198.092941 332.999695,197.619644 
	C332.999695,203.611755 332.999725,208.562256 332.999725,213.512741 
	C332.999725,218.585846 332.999695,223.658966 332.999695,229.947479 
	C340.877350,228.854218 347.966370,228.278275 354.852142,226.772675 
	C359.511414,225.753876 365.530212,219.137848 365.162476,213.923416 
	C364.614746,206.157043 361.470917,201.919983 351.355530,198.978653 
z"/>
<path fill="#DC2626" opacity="1.000000" stroke="none" 
	d="
M423.842529,260.183014 
	C438.429779,280.191559 434.970032,310.617035 418.419495,328.275177 
	C405.252472,342.323364 389.738770,350.053375 370.407501,350.013275 
	C341.578796,349.953461 312.749908,349.977905 283.456909,349.442657 
	C283.046143,319.322723 283.099518,289.726654 283.610840,260.096863 
	C306.533264,260.041351 328.997711,259.986359 351.462128,260.006714 
	C375.588959,260.028595 399.715729,260.121246 423.842529,260.183014 
M333.023376,265.956726 
	C333.054871,277.962158 333.086334,289.967560 333.747131,302.482483 
	C342.478455,302.377197 351.209808,302.271912 360.769287,302.026764 
	C363.026001,301.668884 365.297791,301.386841 367.536865,300.940460 
	C379.277161,298.599792 385.393158,286.028870 380.050812,275.417999 
	C376.276947,267.922455 369.214752,266.198914 361.178528,264.483093 
	C356.054474,264.322815 350.927673,263.980469 345.807251,264.058838 
	C341.573517,264.123657 337.347321,264.685425 333.023376,265.956726 
z"/>
<path fill="#DC2626" opacity="1.000000" stroke="none" 
	d="
M96.879364,152.168457 
	C122.322075,152.110275 147.769806,151.726913 173.205551,152.119995 
	C187.689240,152.343826 201.795166,155.412125 214.100311,163.617767 
	C229.477554,173.871979 240.477463,187.410995 244.044754,206.109299 
	C246.396317,218.435272 244.704742,230.242676 238.947708,241.827896 
	C191.161331,241.947998 144.160828,241.906723 97.111069,241.408325 
	C97.001007,211.356949 96.940186,181.762711 96.879364,152.168457 
M148.531158,200.447052 
	C148.402786,208.488831 148.158051,216.531082 148.190201,224.572220 
	C148.209106,229.304092 148.667603,234.034195 149.820557,238.952499 
	C158.616455,239.426392 167.270554,240.903244 176.169128,238.119949 
	C186.628906,234.848358 192.067169,227.399628 190.986496,215.329819 
	C190.388031,208.645538 180.472610,199.775375 172.747406,199.631165 
	C164.827225,199.483322 156.895065,199.975281 148.531158,200.447052 
z"/>
<path fill="#E45B5B" opacity="1.000000" stroke="none" 
	d="
M225.668564,259.588623 
	C162.210556,259.988068 98.586761,259.986237 34.962990,260.016724 
	C32.483593,260.017914 30.004345,260.328674 27.155067,260.719299 
	C25.935236,260.617401 25.085361,260.291412 22.971928,259.480743 
	C25.028280,259.201294 25.764816,259.013672 26.501389,259.013519 
	C92.009094,259.000275 157.516800,259.000732 223.024506,259.009521 
	C223.850601,259.009613 224.676697,259.129150 225.668564,259.588623 
z"/>
<path fill="#E45B5B" opacity="1.000000" stroke="none" 
	d="
M283.152710,241.869888 
	C319.736603,241.914154 356.320496,241.969589 392.904388,241.998840 
	C418.015015,242.018936 443.125671,242.011856 468.236267,241.985001 
	C470.217102,241.982880 472.197632,241.730240 474.514099,241.377960 
	C475.432556,241.499130 476.015259,241.836395 476.597961,242.173660 
	C476.537415,242.440811 476.476868,242.707962 476.416321,242.975113 
	C412.286194,242.975113 348.156067,242.975113 283.573578,242.667389 
	C283.121216,242.359665 283.152710,241.869888 283.152710,241.869888 
z"/>
<path fill="#E45B5B" opacity="1.000000" stroke="none" 
	d="
M97.160316,241.865463 
	C144.160828,241.906723 191.161331,241.947998 238.636658,242.016708 
	C237.595444,242.362671 236.079666,242.958069 234.563370,242.959442 
	C189.052658,243.000778 143.541870,242.983444 97.579651,242.666718 
	C97.128197,242.358109 97.160316,241.865463 97.160316,241.865463 
z"/>
<path fill="#E45B5B" opacity="1.000000" stroke="none" 
	d="
M423.771088,259.739197 
	C399.715729,260.121246 375.588959,260.028595 351.462128,260.006714 
	C328.997711,259.986359 306.533264,260.041351 283.595215,259.851868 
	C283.121643,259.640594 283.108917,259.149872 283.108917,259.149841 
	C328.157196,259.099976 373.205505,259.046600 418.253784,259.012939 
	C420.069000,259.011597 421.884369,259.196991 423.771088,259.739197 
z"/>
<path fill="#EB8585" opacity="1.000000" stroke="none" 
	d="
M97.111069,241.408325 
	C97.160316,241.865463 97.128197,242.358109 97.121948,242.604645 
	C96.742470,241.941422 96.043327,241.031647 96.043297,240.121857 
	C96.042320,210.947983 96.108925,181.774094 96.522362,152.384338 
	C96.940186,181.762711 97.001007,211.356949 97.111069,241.408325 
z"/>
<path fill="#EB8585" opacity="1.000000" stroke="none" 
	d="
M282.671661,259.239319 
	C283.108917,259.149872 283.121643,259.640594 283.137268,259.885559 
	C283.099518,289.726654 283.046143,319.322723 282.991791,349.376678 
	C282.666748,349.364197 282.058655,348.893646 282.059082,348.423615 
	C282.085999,318.725311 282.162445,289.027069 282.671661,259.239319 
z"/>
<path fill="#EB8585" opacity="1.000000" stroke="none" 
	d="
M283.101776,241.412628 
	C283.152710,241.869888 283.121216,242.359665 283.115570,242.604797 
	C282.740723,242.100967 282.048706,241.351959 282.048828,240.603027 
	C282.052856,211.223495 282.119873,181.843979 282.584137,152.314941 
	C283.010010,181.762070 283.030426,211.358734 283.101776,241.412628 
z"/>
<path fill="#FBE5E5" opacity="1.000000" stroke="none" 
	d="
M149.422241,349.717651 
	C149.000778,323.333862 148.989807,296.834137 149.027939,270.334473 
	C149.030151,268.796631 149.430771,267.259369 149.645981,265.721832 
	C149.785217,265.759766 149.943420,265.768494 150.058746,265.843292 
	C150.194778,265.931488 150.293716,266.076904 150.473114,266.561859 
	C150.358673,268.710480 150.029495,270.494293 150.023575,272.279114 
	C149.938065,298.053253 149.895981,323.827515 149.422241,349.717651 
z"/>
<path fill="#EB8585" opacity="1.000000" stroke="none" 
	d="
M95.775436,299.366577 
	C96.103577,300.706329 96.996704,302.498627 97.012062,304.298462 
	C97.138931,319.171722 97.103203,334.046356 97.116669,349.377991 
	C96.728897,348.433868 96.012016,347.034271 96.003975,345.630585 
	C95.916565,330.361633 95.940208,315.092041 95.775436,299.366577 
z"/>
<path fill="#E45B5B" opacity="1.000000" stroke="none" 
	d="
M361.543243,264.656067 
	C352.616150,264.887451 343.324371,264.945862 333.575195,265.015625 
	C337.347321,264.685425 341.573517,264.123657 345.807251,264.058838 
	C350.927673,263.980469 356.054474,264.322815 361.543243,264.656067 
z"/>
<path fill="#E45B5B" opacity="1.000000" stroke="none" 
	d="
M333.432465,302.227722 
	C341.751831,301.994232 350.385834,302.015472 359.480499,302.101654 
	C351.209808,302.271912 342.478455,302.377197 333.432465,302.227722 
z"/>
<path fill="#E45B5B" opacity="1.000000" stroke="none" 
	d="
M148.749664,200.317139 
	C148.963470,212.750198 148.958771,225.313187 148.941238,238.320618 
	C148.667603,234.034195 148.209106,229.304092 148.190201,224.572220 
	C148.158051,216.531082 148.402786,208.488831 148.749664,200.317139 
z"/>
</svg>